# 3ds Max Wavefront OBJ Exporter v0.99 - (c)2007 guruware
# File Created: 23.10.2021 16:13:01

mtllib cylinder.mtl

#
# object default
#

v  -0.073 0.360 0.164
v  -0.134 0.360 0.120
v  -0.073 0.000 0.164
v  -0.134 0.000 0.120
v  -0.171 0.360 0.056
v  -0.171 0.000 0.056
v  -0.179 0.360 -0.019
v  -0.179 0.000 -0.019
v  -0.156 0.360 -0.090
v  -0.156 0.000 -0.090
v  -0.106 0.360 -0.146
v  -0.106 0.000 -0.146
v  -0.038 0.360 -0.176
v  -0.038 0.000 -0.176
v  0.038 0.360 -0.176
v  0.038 0.000 -0.176
v  0.106 0.360 -0.146
v  0.106 0.000 -0.146
v  0.156 0.360 -0.090
v  0.156 0.000 -0.090
v  0.179 0.360 -0.019
v  0.179 0.000 -0.019
v  0.171 0.360 0.056
v  0.171 0.000 0.056
v  0.134 0.360 0.120
v  0.134 0.000 0.120
v  0.073 0.360 0.164
v  0.073 0.000 0.164
v  0.000 0.360 0.180
v  0.000 0.000 0.180
v  0.000 0.360 -0.000
v  0.000 0.000 -0.000
# 32 vertices

vn -0.407 0.000 0.914
vn -0.743 0.000 0.669
vn -0.951 0.000 0.309
vn -0.995 0.000 -0.105
vn -0.866 0.000 -0.500
vn -0.588 0.000 -0.809
vn -0.208 0.000 -0.978
vn 0.208 0.000 -0.978
vn 0.588 0.000 -0.809
vn 0.866 0.000 -0.500
vn 0.995 0.000 -0.105
vn 0.951 0.000 0.309
vn 0.743 0.000 0.669
vn 0.407 0.000 0.914
vn 0.000 0.000 1.000
vn 0.000 1.000 -0.000
vn 0.000 -1.000 -0.000
# 17 vertex normals

vt 0.375 0.313 0.000
vt 0.392 0.313 0.000
vt 0.375 0.688 0.000
vt 0.392 0.688 0.000
vt 0.408 0.313 0.000
vt 0.408 0.688 0.000
vt 0.425 0.313 0.000
vt 0.425 0.688 0.000
vt 0.442 0.313 0.000
vt 0.442 0.688 0.000
vt 0.458 0.313 0.000
vt 0.458 0.688 0.000
vt 0.475 0.313 0.000
vt 0.475 0.688 0.000
vt 0.492 0.313 0.000
vt 0.492 0.688 0.000
vt 0.508 0.313 0.000
vt 0.508 0.688 0.000
vt 0.525 0.313 0.000
vt 0.525 0.688 0.000
vt 0.542 0.313 0.000
vt 0.542 0.688 0.000
vt 0.558 0.313 0.000
vt 0.558 0.688 0.000
vt 0.575 0.313 0.000
vt 0.575 0.688 0.000
vt 0.592 0.313 0.000
vt 0.592 0.688 0.000
vt 0.608 0.313 0.000
vt 0.608 0.688 0.000
vt 0.625 0.313 0.000
vt 0.625 0.688 0.000
vt 0.605 0.040 0.000
vt 0.643 0.093 0.000
vt 0.500 0.150 0.000
vt 0.548 0.008 0.000
vt 0.484 0.001 0.000
vt 0.422 0.021 0.000
vt 0.374 0.064 0.000
vt 0.347 0.124 0.000
vt 0.347 0.189 0.000
vt 0.374 0.248 0.000
vt 0.422 0.292 0.000
vt 0.484 0.312 0.000
vt 0.548 0.305 0.000
vt 0.605 0.272 0.000
vt 0.643 0.220 0.000
vt 0.656 0.156 0.000
vt 0.643 0.907 0.000
vt 0.605 0.960 0.000
vt 0.500 0.837 0.000
vt 0.548 0.992 0.000
vt 0.484 0.999 0.000
vt 0.422 0.979 0.000
vt 0.374 0.936 0.000
vt 0.347 0.876 0.000
vt 0.347 0.811 0.000
vt 0.374 0.752 0.000
vt 0.422 0.708 0.000
vt 0.484 0.688 0.000
vt 0.548 0.695 0.000
vt 0.605 0.728 0.000
vt 0.643 0.780 0.000
vt 0.656 0.844 0.000
# 64 texture coords

o default
g default
usemtl cylinder_cylinder_default
f 1/1/1 2/2/2 3/3/1 
f 3/3/1 2/2/2 4/4/2 
f 2/2/2 5/5/3 4/4/2 
f 4/4/2 5/5/3 6/6/3 
f 5/5/3 7/7/4 6/6/3 
f 6/6/3 7/7/4 8/8/4 
f 7/7/4 9/9/5 8/8/4 
f 8/8/4 9/9/5 10/10/5 
f 9/9/5 11/11/6 10/10/5 
f 10/10/5 11/11/6 12/12/6 
f 11/11/6 13/13/7 12/12/6 
f 12/12/6 13/13/7 14/14/7 
f 13/13/7 15/15/8 14/14/7 
f 14/14/7 15/15/8 16/16/8 
f 15/15/8 17/17/9 16/16/8 
f 16/16/8 17/17/9 18/18/9 
f 17/17/9 19/19/10 18/18/9 
f 18/18/9 19/19/10 20/20/10 
f 19/19/10 21/21/11 20/20/10 
f 20/20/10 21/21/11 22/22/11 
f 21/21/11 23/23/12 22/22/11 
f 22/22/11 23/23/12 24/24/12 
f 23/23/12 25/25/13 24/24/12 
f 24/24/12 25/25/13 26/26/13 
f 25/25/13 27/27/14 26/26/13 
f 26/26/13 27/27/14 28/28/14 
f 27/27/14 29/29/15 28/28/14 
f 28/28/14 29/29/15 30/30/15 
f 29/29/15 1/31/1 30/30/15 
f 30/30/15 1/31/1 3/32/1 
f 2/33/16 1/34/16 31/35/16 
f 5/36/16 2/33/16 31/35/16 
f 7/37/16 5/36/16 31/35/16 
f 9/38/16 7/37/16 31/35/16 
f 11/39/16 9/38/16 31/35/16 
f 13/40/16 11/39/16 31/35/16 
f 15/41/16 13/40/16 31/35/16 
f 17/42/16 15/41/16 31/35/16 
f 19/43/16 17/42/16 31/35/16 
f 21/44/16 19/43/16 31/35/16 
f 23/45/16 21/44/16 31/35/16 
f 25/46/16 23/45/16 31/35/16 
f 27/47/16 25/46/16 31/35/16 
f 29/48/16 27/47/16 31/35/16 
f 1/34/16 29/48/16 31/35/16 
f 3/49/17 4/50/17 32/51/17 
f 4/50/17 6/52/17 32/51/17 
f 6/52/17 8/53/17 32/51/17 
f 8/53/17 10/54/17 32/51/17 
f 10/54/17 12/55/17 32/51/17 
f 12/55/17 14/56/17 32/51/17 
f 14/56/17 16/57/17 32/51/17 
f 16/57/17 18/58/17 32/51/17 
f 18/58/17 20/59/17 32/51/17 
f 20/59/17 22/60/17 32/51/17 
f 22/60/17 24/61/17 32/51/17 
f 24/61/17 26/62/17 32/51/17 
f 26/62/17 28/63/17 32/51/17 
f 28/63/17 30/64/17 32/51/17 
f 30/64/17 3/49/17 32/51/17 
# 60 faces

